#!OML:ASF F:\VICON\USERDATA\INSTALL\rory3\rory3.ASF
:FULLY-SPECIFIED
:DEGREES
2554
root -0.894597 17.0691 -1.08076 2.05777 11.0792 -6.17154
lowerback 9.97069 0.245488 -7.95893
upperback 9.25256 -0.117464 -0.0126515
thorax 4.20324 -0.477327 4.45672
lowerneck -2.56773 -13.0053 -20.2075
upperneck 11.1126 -23.4315 39.2037
head 12.6535 -10.8903 15.5917
rclavicle 1.03368e-014 1.74931e-014
rhumerus 79.938 16.1884 -17.0141
rradius 51.2216
rwrist -51.5948
rhand -7.33091 -0.807504
rfingers 7.12502
rthumb 18.5525 -29.9428
lclavicle 1.03368e-014 1.74931e-014
lhumerus 68.281 -15.4524 53.7855
lradius 46.6922
lwrist 63.2292
lhand -34.2718 49.45
lfingers 7.12502
lthumb -7.4419 79.2991
rfemur -12.6751 -1.0834 28.4681
rtibia 25.7484
rfoot -17.0112 -9.73095
rtoes -19.9726
lfemur -20.677 -10.1233 -6.31735
ltibia 33.8191
lfoot -16.1555 -3.39015
ltoes -20.8838
2555
root -0.891857 17.0711 -1.07479 2.03972 11.1988 -6.26725
lowerback 9.85368 0.39581 -7.92681
upperback 9.27242 0.095504 -0.00601932
thorax 4.2588 -0.371536 4.43241
lowerneck -2.34332 -13.1156 -19.947
upperneck 10.8608 -23.5784 39.3124
head 12.5489 -10.9741 15.5243
rclavicle 5.56597e-015 -4.29375e-014
rhumerus 79.5984 16.2838 -17.3948
rradius 51.2787
rwrist -51.5304
rhand -7.71604 -1.14655
rfingers 7.12502
rthumb 18.182 -30.3168
lclavicle 5.56597e-015 -4.29375e-014
lhumerus 68.4489 -15.6456 53.3974
lradius 46.661
lwrist 63.4865
lhand -33.9737 49.1323
lfingers 7.12502
lthumb -7.15418 78.9913
rfemur -12.5926 -1.20352 28.559
rtibia 25.6153
rfoot -16.9667 -9.69177
rtoes -20.0526
lfemur -20.7778 -10.2335 -6.21299
ltibia 33.9879
lfoot -16.3128 -3.30458
ltoes -21.3642
2556
root -0.889162 17.0701 -1.06852 2.02659 11.3117 -6.35364
lowerback 9.73074 0.548212 -7.88595
upperback 9.31044 0.313945 -0.026331
thorax 4.33666 -0.262867 4.37489
lowerneck -2.15439 -13.2549 -19.6256
upperneck 10.5937 -23.7683 39.4382
head 12.4585 -11.0724 15.4366
rclavicle -1.19271e-014 -1.27222e-014
rhumerus 79.3058 16.3262 -17.8202
rradius 51.2377
rwrist -51.4914
rhand -8.16381 -1.41577
rfingers 7.12502
rthumb 17.7512 -30.6255
lclavicle -1.19271e-014 -1.27222e-014
lhumerus 68.7583 -15.8661 52.6768
lradius 46.579
lwrist 63.8353
lhand -33.7016 48.6356
lfingers 7.12502
lthumb -6.89152 78.5035
rfemur -12.5 -1.32815 28.6466
rtibia 25.4747
rfoot -16.9228 -9.70628
rtoes -20.3012
lfemur -20.865 -10.3029 -6.11985
ltibia 34.1185
lfoot -16.3752 -3.3161
ltoes -21.5813
2557
root -0.887859 17.0632 -1.06739 2.03826 11.4287 -6.5502
lowerback 9.6363 0.666667 -7.72273
upperback 9.34118 0.490656 -0.0151717
thorax 4.39471 -0.168427 4.28491
lowerneck -2.01292 -13.3755 -19.3991
upperneck 10.2923 -23.9257 39.6331
head 12.3892 -11.1615 15.4143
rclavicle 4.37326e-014 -2.54444e-014
rhumerus 79.1011 16.3482 -18.178
rradius 51.2759
rwrist -51.3302
rhand -8.77443 -1.87049
rfingers 7.12502
rthumb 17.1636 -31.1324
lclavicle 4.37326e-014 -2.54444e-014
lhumerus 69.1288 -15.999 51.6901
lradius 46.4787
lwrist 64.3073
lhand -33.4476 48.1434
lfingers 7.12502
lthumb -6.64629 78.0191
rfemur -12.5234 -1.37506 28.8587
rtibia 25.3667
rfoot -16.8532 -9.77199
rtoes -20.3536
lfemur -21.051 -10.3727 -5.87877
ltibia 34.2461
lfoot -16.3571 -3.51638
ltoes -20.8161
2558
root -0.887775 17.0599 -1.06694 2.0013 11.5072 -6.65508
lowerback 9.6313 0.721181 -7.85639
upperback 9.38172 0.554336 0.127346
thorax 4.43544 -0.151775 4.50697
lowerneck -1.99516 -13.4282 -19.5134
upperneck 10.1146 -23.9787 39.7625
head 12.395 -11.2046 15.4738
rclavicle -3.57812e-014 3.18055e-015
rhumerus 79.2532 16.4808 -18.2347
rradius 51.4471
rwrist -51.2106
rhand -9.47327 -2.4106
rfingers 7.12502
rthumb 16.4908 -31.7298
lclavicle -3.57812e-014 3.18055e-015
lhumerus 69.1524 -15.8578 51.1517
lradius 46.466
lwrist 64.1266
lhand -33.2183 47.9512
lfingers 7.12502
lthumb -6.42493 77.8338
rfemur -12.5095 -1.36034 28.9728
rtibia 25.3202
rfoot -16.7766 -9.85503
rtoes -20.6731
lfemur -21.1253 -10.4141 -5.75395
ltibia 34.344
lfoot -16.3717 -3.59048
ltoes -20.9649
2559
root -0.884572 17.0618 -1.06302 1.98017 11.5898 -6.70197
lowerback 9.59347 0.766471 -8.07839
upperback 9.41523 0.601884 0.326503
thorax 4.49016 -0.15088 4.84025
lowerneck -2.04147 -13.5203 -19.7987
upperneck 10.0004 -24.0904 39.8317
head 12.4772 -11.2737 15.5239
rclavicle -7.95139e-016 -1.74931e-014
rhumerus 79.5208 16.6549 -18.2044
rradius 51.4445
rwrist -51.2986
rhand -9.90919 -2.58337
rfingers 7.12502
rthumb 16.0711 -31.9369
lclavicle -7.95139e-016 -1.74931e-014
lhumerus 69.0611 -15.6903 50.9202
lradius 46.4772
lwrist 63.6186
lhand -33.1536 47.6044
lfingers 7.12502
lthumb -6.36248 77.4888
rfemur -12.4603 -1.49028 29.0194
rtibia 25.2933
rfoot -16.8326 -9.76425
rtoes -20.6347
lfemur -21.1461 -10.464 -5.71357
ltibia 34.414
lfoot -16.4525 -3.41869
ltoes -21.8483
2560
root -0.879402 17.0628 -1.05885 1.98297 11.6799 -6.67278
lowerback 9.55831 0.774845 -8.35204
upperback 9.41437 0.596979 0.479353
thorax 4.51484 -0.175531 5.15717
lowerneck -2.13666 -13.5606 -20.0456
upperneck 10.0672 -24.1544 39.808
head 12.5888 -11.3038 15.5515
rclavicle -1.11319e-014 -9.54166e-015
rhumerus 79.8947 16.8609 -18.3331
rradius 51.3242
rwrist -51.3862
rhand -10.0788 -2.7322
rfingers 7.12502
rthumb 15.9078 -32.0988
lclavicle -1.11319e-014 -9.54166e-015
lhumerus 68.7201 -15.4503 51.3537
lradius 46.2769
lwrist 62.7294
lhand -32.6992 47.169
lfingers 7.12502
lthumb -5.92377 77.0662
rfemur -12.4217 -1.63846 28.9733
rtibia 25.3031
rfoot -16.9739 -9.6828
rtoes -20.0998
lfemur -21.1665 -10.5699 -5.75384
ltibia 34.4515
lfoot -16.4656 -3.36107
ltoes -21.9618
2561
root -0.874386 17.0642 -1.0543 1.97155 11.7486 -6.63428
lowerback 9.52464 0.820333 -8.45529
upperback 9.41259 0.653785 0.518529
thorax 4.52477 -0.154649 5.25395
lowerneck -2.09081 -13.6058 -20.1423
upperneck 10.0289 -24.2158 39.8192
head 12.6092 -11.3435 15.558
rclavicle 1.51076e-014 2.22639e-014
rhumerus 80.0192 17.0621 -18.7331
rradius 51.0447
rwrist -51.1413
rhand -10.0803 -2.51123
rfingers 7.12502
rthumb 15.9063 -31.878
lclavicle 1.51076e-014 2.22639e-014
lhumerus 68.3156 -15.2978 52.273
lradius 46.0766
lwrist 61.5889
lhand -31.3838 47.5445
lfingers 7.12502
lthumb -4.65374 77.4734
rfemur -12.3956 -1.70919 28.9131
rtibia 25.3298
rfoot -17.1272 -9.65583
rtoes -19.2772
lfemur -21.1729 -10.6613 -5.81626
ltibia 34.4885
lfoot -16.4346 -3.47891
ltoes -21.0966
2562
root -0.871149 17.0631 -1.05306 1.9488 11.8026 -6.7112
lowerback 9.59081 0.960735 -8.40074
upperback 9.34369 0.832308 0.546452
thorax 4.38415 -0.0548101 5.24136
lowerneck -1.84818 -13.7002 -20.1236
upperneck 9.86437 -24.3577 39.9185
head 12.5741 -11.4409 15.5597
rclavicle 3.18055e-014 1.90833e-014
rhumerus 79.7789 17.2702 -19.2703
rradius 50.7331
rwrist -50.917
rhand -10.0376 -2.21454
rfingers 7.12502
rthumb 15.9474 -31.578
lclavicle 3.18055e-014 1.90833e-014
lhumerus 68.3489 -15.4651 51.8995
lradius 46.1981
lwrist 61.7644
lhand -30.2554 48.0825
lfingers 7.12502
lthumb -3.56414 78.0324
rfemur -12.4035 -1.74504 28.9896
rtibia 25.3571
rfoot -17.0623 -9.73449
rtoes -19.9776
lfemur -21.208 -10.718 -5.73331
ltibia 34.5164
lfoot -16.3916 -3.6446
ltoes -20.1309
2563
root -0.867831 17.062 -1.05209 1.91421 11.8547 -6.8353
lowerback 9.63678 1.12491 -8.412
upperback 9.31906 1.04134 0.635844
thorax 4.2989 0.0506946 5.32905
lowerneck -1.68511 -13.8457 -20.0121
upperneck 9.64516 -24.5451 39.9862
head 12.5274 -11.5457 15.49
rclavicle 8.74653e-015 -3.18055e-015
rhumerus 79.5483 17.4115 -19.9605
rradius 50.4374
rwrist -50.5561
rhand -9.99529 -2.20089
rfingers 7.12502
rthumb 15.9882 -31.5611
lclavicle 8.74653e-015 -3.18055e-015
lhumerus 68.6223 -15.6426 50.7448
lradius 46.5455
lwrist 62.6463
lhand -30.5444 47.7635
lfingers 7.12502
lthumb -3.8432 77.7086
rfemur -12.389 -1.78771 29.116
rtibia 25.3412
rfoot -16.935 -9.79692
rtoes -19.9376
lfemur -21.239 -10.7273 -5.60165
ltibia 34.5458
lfoot -16.3634 -3.81316
ltoes -19.2356
2564
root -0.863134 17.0628 -1.0481 1.94517 11.9259 -6.72019
lowerback 9.54917 1.27183 -8.56659
upperback 9.37239 1.24043 0.568493
thorax 4.37651 0.139531 5.33363
lowerneck -1.60481 -14.0058 -19.7555
upperneck 9.36098 -24.7616 40.1706
head 12.4954 -11.6543 15.433
rclavicle 3.33958e-014 -3.18055e-015
rhumerus 79.2911 17.471 -21.0003
rradius 49.9713
rwrist -50.06
rhand -9.81112 -1.85564
rfingers 7.12502
rthumb 16.1655 -31.2015
lclavicle 3.33958e-014 -3.18055e-015
lhumerus 68.7321 -15.7507 50.7364
lradius 46.5287
lwrist 62.243
lhand -31.1275 47.0164
lfingers 7.12502
lthumb -4.40623 76.9506
rfemur -12.3952 -1.87929 28.97
rtibia 25.3261
rfoot -16.9721 -9.7538
rtoes -19.3429
lfemur -21.2536 -10.7991 -5.74651
ltibia 34.567
lfoot -16.3547 -3.80175
ltoes -19.1067
2565
root -0.858643 17.062 -1.04369 1.91029 12.0478 -6.68719
lowerback 9.54932 1.40778 -8.46835
upperback 9.39113 1.43229 0.390897
thorax 4.36884 0.247837 5.07753
lowerneck -1.38224 -14.1356 -19.3338
upperneck 9.05879 -24.9513 40.4047
head 12.3985 -11.7607 15.3868
rclavicle -2.38542e-015 4.77083e-015
rhumerus 78.8384 17.5518 -22.3283
rradius 49.4466
rwrist -49.7674
rhand -9.61867 -1.39959
rfingers 7.12502
rthumb 16.3508 -30.7303
lclavicle -2.38542e-015 4.77083e-015
lhumerus 68.877 -15.9183 51.0139
lradius 46.2777
lwrist 61.8431
lhand -30.24 47.3492
lfingers 7.12502
lthumb -3.54926 77.2994
rfemur -12.3533 -1.97023 28.9129
rtibia 25.2894
rfoot -17.0795 -9.7656
rtoes -19.69
lfemur -21.2341 -10.9311 -5.80029
ltibia 34.5901
lfoot -16.4948 -3.66338
ltoes -20.0908
